<?xml version="1.0" standalone="no"?><!-- Generator: Gravit.io --><svg xmlns="http://www.w3.org/2000/svg" xmlns:xlink="http://www.w3.org/1999/xlink" style="isolation:isolate" viewBox="0 0 16 16" width="16" height="16"><defs><clipPath id="_clipPath_GN5CoaCsivQiT2oC5wOXOo0nGA9mV0Kg"><rect width="16" height="16"/></clipPath></defs><g clip-path="url(#_clipPath_GN5CoaCsivQiT2oC5wOXOo0nGA9mV0Kg)"><path d=" M 4.145 1.414 L 4.145 1.414 L 4.145 1.414 Q 3.627 1.414 3.007 1.741 L 3.007 1.741 L 3.007 1.741 Q 2.387 2.068 1.859 2.596 L 1.859 2.596 L 1.859 1.121 L 1.859 1.121 Q 2.836 0.057 4.242 0.057 L 4.242 0.057 L 4.242 0.057 Q 4.906 0.057 5.458 0.193 L 5.458 0.193 L 5.458 0.193 Q 6.01 0.33 6.879 0.701 L 6.879 0.701 L 6.879 0.701 Q 7.523 0.975 8.002 1.106 L 8.002 1.106 L 8.002 1.106 Q 8.48 1.238 8.939 1.238 L 8.939 1.238 L 8.939 1.238 Q 9.467 1.238 10.092 0.926 L 10.092 0.926 L 10.092 0.926 Q 10.717 0.613 11.244 0.057 L 11.244 0.057 L 11.244 1.521 L 11.244 1.521 Q 10.248 2.596 8.861 2.596 L 8.861 2.596 L 8.861 2.596 Q 8.158 2.596 7.543 2.435 L 7.543 2.435 L 7.543 2.435 Q 6.928 2.273 6.225 1.961 L 6.225 1.961 L 6.225 1.961 Q 5.492 1.648 5.053 1.531 L 5.053 1.531 L 5.053 1.531 Q 4.613 1.414 4.145 1.414 Z " fill="rgb(203,75,22)"/><g><g><path d=" M 11.409 5.769 C 11.42 5.824 11.422 5.88 11.422 5.936 L 11.422 12.55 C 11.422 13.963 10.151 15.11 8.586 15.11 L 4.258 15.11 C 2.693 15.11 1.422 13.963 1.422 12.55 L 1.422 5.936 C 1.422 5.893 1.423 5.849 1.432 5.807" fill="rgb(238,232,213)" vector-effect="non-scaling-stroke" stroke-width="1" stroke="rgb(0,0,0)" stroke-linejoin="miter" stroke-linecap="square" stroke-miterlimit="3"/><ellipse vector-effect="non-scaling-stroke" cx="6.421875000000001" cy="5.548230898418447" rx="4.999999999999999" ry="1.4384615384615387" fill="rgb(189,184,168)" stroke-width="1" stroke="rgb(0,0,0)" stroke-linejoin="miter" stroke-linecap="square" stroke-miterlimit="3"/></g><path d=" M 12 8 C 12.969 7.094 13 7 14 7 C 15 7 15 8.031 15 9 C 15 9.969 14.938 11 14 11 C 13.063 11 12.969 10.906 12 10" fill="none" vector-effect="non-scaling-stroke" stroke-width="1" stroke="rgb(0,0,0)" stroke-linejoin="miter" stroke-linecap="square" stroke-miterlimit="3"/></g></g></svg>